<svg width="40" height="40" viewBox="0 0 40 40" fill="none" xmlns="http://www.w3.org/2000/svg">
<path d="M16.8884 17.5597L19.5734 15.0997C20.3076 14.4258 20.8236 13.5478 21.0552 12.5785C21.2869 11.6092 21.2236 10.5928 20.8734 9.65972L19.7284 6.60222C19.3006 5.46076 18.4538 4.52534 17.3604 3.98652C16.2669 3.4477 15.0092 3.34603 13.8434 3.70222C9.55342 5.01472 6.25592 9.00222 7.27092 13.7372C7.93842 16.8522 9.21592 20.7622 11.6359 24.9222C14.0609 29.0922 16.8309 32.1722 19.2059 34.3372C22.7909 37.5997 27.9159 36.7847 31.2134 33.7097C32.0973 32.8856 32.6337 31.7553 32.7131 30.5494C32.7926 29.3435 32.4091 28.1527 31.6409 27.2197L29.5409 24.6697C28.9076 23.8986 28.0579 23.3346 27.1014 23.0504C26.1448 22.7661 25.1251 22.7746 24.1734 23.0747L20.7034 24.1672C19.8073 23.2424 19.022 22.2163 18.3634 21.1097C17.7278 19.9906 17.2324 18.7975 16.8884 17.5572V17.5597Z" fill="#EEDDFF"/>
</svg>
