<svg width="40" height="40" viewBox="0 0 40 40" fill="none" xmlns="http://www.w3.org/2000/svg">
<path d="M22.89 36.36C27.2475 32.525 35 24.69 35 17.5C35 13.5218 33.4196 9.70644 30.6066 6.8934C27.7936 4.08035 23.9782 2.5 20 2.5C16.0218 2.5 12.2064 4.08035 9.3934 6.8934C6.58035 9.70644 5 13.5218 5 17.5C5 24.69 12.75 32.525 17.11 36.36C17.9053 37.0698 18.934 37.4622 20 37.4622C21.066 37.4622 22.0947 37.0698 22.89 36.36ZM15 17.5C15 16.1739 15.5268 14.9021 16.4645 13.9645C17.4021 13.0268 18.6739 12.5 20 12.5C21.3261 12.5 22.5979 13.0268 23.5355 13.9645C24.4732 14.9021 25 16.1739 25 17.5C25 18.8261 24.4732 20.0979 23.5355 21.0355C22.5979 21.9732 21.3261 22.5 20 22.5C18.6739 22.5 17.4021 21.9732 16.4645 21.0355C15.5268 20.0979 15 18.8261 15 17.5Z" fill="#EEDDFF"/>
</svg>
